<?xml version="1.0" standalone="no"?>
<!DOCTYPE svg PUBLIC "-//W3C//DTD SVG 20010904//EN"
 "http://www.w3.org/TR/2001/REC-SVG-20010904/DTD/svg10.dtd">
<svg version="1.0" xmlns="http://www.w3.org/2000/svg"
 width="512.000000pt" height="512.000000pt" viewBox="0 0 512.000000 512.000000"
 preserveAspectRatio="xMidYMid meet">
<metadata>
Created by potrace 1.14, written by Peter Selinger 2001-2017
</metadata>
<g transform="translate(0.000000,512.000000) scale(0.100000,-0.100000)"
fill="#000000" stroke="none">
<path d="M2069 5097 c-33 -22 -39 -34 -165 -322 -10 -22 -28 -65 -42 -95 -13
-30 -33 -75 -44 -100 -11 -25 -25 -58 -33 -75 -7 -16 -39 -88 -70 -160 -31
-71 -63 -143 -70 -160 -7 -16 -54 -123 -104 -236 -127 -292 -131 -301 -146
-334 -8 -16 -37 -84 -66 -150 -28 -66 -62 -144 -75 -173 -13 -29 -35 -79 -49
-112 -14 -33 -37 -85 -51 -116 -44 -97 -41 -103 156 -339 95 -113 182 -211
194 -217 11 -7 68 -14 126 -16 58 -2 105 -4 106 -5 1 -2 -93 -249 -109 -287
-4 -8 -22 -58 -42 -110 -19 -52 -40 -104 -45 -115 -5 -11 -35 -87 -66 -170
-31 -82 -62 -163 -69 -180 -7 -16 -61 -156 -120 -310 -58 -154 -117 -307 -130
-340 -91 -233 -164 -426 -173 -457 -8 -30 -7 -44 7 -72 14 -27 94 -130 121
-156 3 -3 52 -61 110 -130 119 -143 124 -147 168 -156 50 -10 85 11 169 103
43 47 83 91 88 97 6 6 39 43 74 81 36 39 85 93 111 120 38 41 239 261 275 301
6 6 53 57 105 114 52 57 102 111 110 120 8 10 52 58 97 107 160 175 160 174
137 218 -13 25 -11 29 54 98 37 40 71 70 76 69 6 -2 23 -6 38 -9 35 -7 32 -10
363 353 112 122 198 215 252 274 23 25 51 56 63 70 25 30 184 202 253 274 27
28 55 66 64 85 29 67 23 77 -217 361 -145 172 -143 171 -205 174 -50 2 -63 10
-48 28 9 11 276 473 345 596 11 20 32 57 47 82 14 25 33 57 41 71 24 43 381
663 391 679 92 155 93 180 12 275 -49 56 -57 66 -168 200 -132 158 -126 152
-158 164 -18 7 -169 11 -428 11 -386 0 -400 -1 -419 -20 -11 -11 -20 -27 -20
-35 0 -18 5 -17 -107 -20 l-92 -1 -17 32 c-10 18 -27 35 -38 38 -12 3 -136 6
-277 6 -250 0 -257 -1 -290 -23z"/>
</g>
</svg>
